<?xml version="1.0" standalone="no"?>
<!DOCTYPE svg PUBLIC "-//W3C//DTD SVG 20010904//EN"
 "http://www.w3.org/TR/2001/REC-SVG-20010904/DTD/svg10.dtd">
<svg version="1.0" xmlns="http://www.w3.org/2000/svg"
 width="260.000000pt" height="260.000000pt" viewBox="0 0 260.000000 260.000000"
 preserveAspectRatio="xMidYMid meet">
<metadata>
Created by potrace 1.11, written by Peter Selinger 2001-2013
</metadata>
<g transform="translate(0.000000,260.000000) scale(0.100000,-0.100000)"
fill="#000000" stroke="none">
<path d="M553 1925 c-212 -46 -376 -220 -427 -452 -23 -102 -21 -267 4 -372
67 -278 283 -451 565 -451 174 0 317 69 400 192 l32 49 7 -32 c3 -17 6 -53 6
-79 0 -26 3 -62 6 -79 6 -28 10 -31 45 -31 l39 0 0 315 0 315 -265 0 -265 0 0
-50 0 -50 215 0 215 0 0 -27 c0 -51 -28 -160 -54 -210 -65 -130 -214 -213
-381 -213 -280 0 -465 216 -465 545 0 326 185 545 460 545 185 0 358 -118 401
-275 10 -35 10 -35 68 -35 l59 0 -9 41 c-27 120 -133 255 -243 309 -115 57
-278 74 -413 45z"/>
<path d="M1853 1925 c-212 -46 -376 -220 -427 -452 -23 -102 -21 -267 4 -372
67 -278 283 -451 565 -451 271 0 460 167 514 454 l8 46 -59 0 c-38 0 -60 -4
-62 -12 -2 -7 -9 -35 -15 -63 -42 -182 -179 -308 -350 -322 -295 -25 -501 198
-501 542 0 327 186 546 463 545 153 -1 284 -77 345 -202 17 -35 33 -71 36 -80
4 -15 17 -18 65 -18 l61 0 -6 33 c-3 17 -21 64 -40 103 -41 86 -124 168 -209
209 -112 52 -263 68 -392 40z"/>
</g>
</svg>
